<svg width="990" height="100" viewBox="0 0 990 100" fill="none" xmlns="http://www.w3.org/2000/svg">
<path d="M494.979 1C497.029 22.5932 407.752 69.1017 407.752 99" stroke="#E5E7EB" stroke-width="2" stroke-linecap="round"/>
<path d="M494.979 1C497.029 22.5932 320.491 69.1017 320.491 99" stroke="#E5E7EB" stroke-width="2" stroke-linecap="round"/>
<path d="M494.98 1C497.029 22.5932 240.266 52.1017 240.266 82" stroke="#E5E7EB" stroke-width="2" stroke-linecap="round"/>
<path d="M494.979 1C497.029 22.5932 133.3 49.1017 133.3 79" stroke="#E5E7EB" stroke-width="2" stroke-linecap="round"/>
<path d="M494.979 1C497.029 22.5932 1 40.1017 1 70" stroke="#E5E7EB" stroke-width="2" stroke-linecap="round"/>
<path d="M495.021 1C492.971 22.5932 989 40.1017 989 70" stroke="#E5E7EB" stroke-width="2" stroke-linecap="round"/>
<path d="M495.023 4C492.973 25.5932 856.702 52.1017 856.702 82" stroke="#E5E7EB" stroke-width="2" stroke-linecap="round"/>
<path d="M495.026 1C492.976 22.5932 749.74 52.1017 749.74 82" stroke="#E5E7EB" stroke-width="2" stroke-linecap="round"/>
<path d="M495.032 1C492.982 22.5932 669.521 69.1017 669.521 99" stroke="#E5E7EB" stroke-width="2" stroke-linecap="round"/>
<path d="M495.049 1C492.999 22.5932 582.276 69.1017 582.276 99" stroke="#E5E7EB" stroke-width="2" stroke-linecap="round"/>
</svg>
