<svg width="44" height="56" viewBox="0 0 44 56" fill="none" xmlns="http://www.w3.org/2000/svg">
<path opacity="0.4" fill-rule="evenodd" clip-rule="evenodd" d="M2.94828 28C4.16235 28 5.14655 28.851 5.14655 29.901C5.14655 36.3958 12.2239 41.56 22 41.56C31.776 41.56 38.8535 36.3958 38.8535 29.901C38.8535 28.851 39.8378 28 41.0518 28C42.2658 28 43.25 28.851 43.25 29.901V39.2787C43.25 48.4777 33.4373 55.5 22 55.5C10.5627 55.5 0.75 48.4777 0.75 39.2787V29.901C0.75 28.851 1.7342 28 2.94828 28ZM5.14992 39.5255C5.32737 46.039 12.512 51.6982 22 51.6982C31.488 51.6982 38.6725 46.039 38.85 39.5255C34.885 43.212 28.6677 45.3618 22 45.3618C15.3321 45.3618 9.1151 43.212 5.14992 39.5255Z" fill="black"/>
<path fill-rule="evenodd" clip-rule="evenodd" d="M22 4.4C17.2366 4.4 13.0068 5.8781 9.96282 8.23508C6.94662 10.5676 5.14655 13.7205 5.14655 17.14C5.14655 19.1408 5.76383 20.9737 6.84645 22.5452L6.84908 22.549C9.50448 26.4235 15.1504 29.1 22 29.1C28.8495 29.1 34.4955 26.4235 37.151 22.549L37.1535 22.5452C38.2363 20.9737 38.8535 19.1408 38.8535 17.14C38.8535 13.7245 37.0582 10.571 34.0375 8.20942C30.9907 5.87612 26.76 4.4 22 4.4ZM7.07267 5.29615C10.9458 2.29757 16.2122 0.5 22 0.5C27.7877 0.5 33.0505 2.29743 36.9202 5.26475L36.9355 5.2763C40.7693 8.27005 43.25 12.4463 43.25 17.14C43.25 19.8705 42.4022 22.4048 40.9065 24.577C37.289 29.8533 30.039 33 22 33C13.961 33 6.71133 29.8535 3.09382 24.5773C1.59781 22.405 0.75 19.8708 0.75 17.14C0.75 12.4479 3.23084 8.26757 7.07267 5.29615Z" fill="black"/>
<path fill-rule="evenodd" clip-rule="evenodd" d="M22 4.35715C12.3924 4.35715 5.14655 10.2442 5.14655 16.9573V29.8143C5.14655 36.4035 12.2239 41.6427 22 41.6427C31.776 41.6427 38.8535 36.4035 38.8535 29.8143V16.9573C38.8535 13.5793 37.0582 10.4604 34.0375 8.12472C30.9907 5.81705 26.76 4.35715 22 4.35715ZM0.75 16.9573C0.75 7.62435 10.5627 0.5 22 0.5C27.7877 0.5 33.0505 2.27768 36.9202 5.2124L36.9355 5.2238C40.7693 8.18465 43.25 12.315 43.25 16.9573V29.8143C43.25 39.2708 33.2688 45.5 22 45.5C10.7312 45.5 0.75 39.2708 0.75 29.8143V16.9573Z" fill="black"/>
</svg>
